<svg xmlns:dc="http://purl.org/dc/elements/1.1/" xmlns:cc="http://creativecommons.org/ns#" xmlns:rdf="http://www.w3.org/1999/02/22-rdf-syntax-ns#" xmlns:svg="http://www.w3.org/2000/svg" xmlns="http://www.w3.org/2000/svg" xmlns:sodipodi="http://sodipodi.sourceforge.net/DTD/sodipodi-0.dtd" xmlns:inkscape="http://www.inkscape.org/namespaces/inkscape" viewBox="0 0 16.933333 21.1666675" version="1.1" x="0px" y="0px"><g transform="translate(0,-280.06665)"><path d="m 3.1805904,291.95847 h 0.869129 v -1.2634 c 0,-0.1191 -0.04905,-0.2279 -0.127819,-0.3067 -0.07877,-0.079 -0.187538,-0.1278 -0.306651,-0.1278 h -1.6e-4 c -0.119142,0 -0.227913,0.049 -0.30668,0.1278 -0.07874,0.079 -0.127819,0.1876 -0.127819,0.3067 z m 1.013856,0.2894 h -1.154799 -0.0037 -0.0037 -2.250309 c -0.138827,0 -0.266144,-0.051 -0.358854,-0.1327 l -0.01085,-0.011 c -0.09157,-0.086 -0.147691,-0.202 -0.147691,-0.3305 v -2.7215 c 0,-0.08 0.06482,-0.1447 0.144727,-0.1447 h 0.0037 c 0.124354,0 0.236273,-0.045 0.316495,-0.1159 l 0.0074,-0.01 c 0.07154,-0.066 0.115517,-0.1554 0.115517,-0.2523 0,-0.1001 -0.04694,-0.1918 -0.122555,-0.2588 v 0 c -0.08104,-0.071 -0.194416,-0.1158 -0.320278,-0.1158 -0.0799,0 -0.144727,-0.065 -0.144727,-0.1447 v 0 -2.718 c 0,-0.1334 0.06104,-0.254 0.15867,-0.3405 v 0 0 c 0.09271,-0.082 0.22003,-0.1327 0.358857,-0.1327 H 16.151338 c 0.1388,0 0.266118,0.051 0.358828,0.1327 l 0.01085,0.011 c 0.09123,0.086 0.147688,0.2022 0.147688,0.3305 v 2.7217 c 0,0.08 -0.06482,0.1447 -0.144726,0.1447 h -0.0037 c -0.124859,0 -0.236592,0.045 -0.316335,0.1152 -0.0758,0.067 -0.1229,0.159 -0.1229,0.2591 0,0.1002 0.0471,0.1921 0.1229,0.259 0.08057,0.071 0.19378,0.1152 0.320118,0.1152 0.07991,0 0.144729,0.065 0.144729,0.1447 v 0 2.7178 c 0,0.1336 -0.06072,0.254 -0.158672,0.3405 v 0 0 c -0.09271,0.082 -0.220028,0.1327 -0.358829,0.1327 h -2.250172 -0.0037 -1.154933 -0.0037 -0.0037 -1.25931 -0.0037 -1.154957 -0.0037 -0.0037 -1.2592806 -0.0037 -1.154933 -0.0037 -0.0037 -1.259311 -0.0037 -1.154932 -0.0037 -0.0037 -1.259471 z m 0.144703,-1.5528 v 1.2634 h 0.977581 v -1.2634 c 0,-0.1994 0.08139,-0.3804 0.212486,-0.5115 0.1311,-0.131 0.312393,-0.2124 0.511574,-0.2124 0.199204,0 0.380495,0.081 0.511597,0.2124 0.1311,0.1311 0.212484,0.3121 0.212484,0.5115 v 1.2634 h 0.977424 v -1.2634 c 0,-0.1994 0.08136,-0.3804 0.212462,-0.5115 0.1311,-0.131 0.312418,-0.2124 0.511596,-0.2124 0.199207,0 0.3805,0.081 0.5116,0.2124 0.131102,0.1311 0.212486,0.3121 0.212486,0.5115 v 1.2634 h 0.9773966 v -1.2634 c 0,-0.1994 0.08139,-0.3804 0.21249,-0.5115 0.131101,-0.131 0.312394,-0.2124 0.511599,-0.2124 0.199178,0 0.380497,0.081 0.511598,0.2124 0.131101,0.1311 0.212461,0.3121 0.212461,0.5115 v 1.2634 h 0.977423 v -1.2634 c 0,-0.1994 0.08139,-0.3804 0.212487,-0.5115 0.131101,-0.131 0.312394,-0.2124 0.511572,-0.2124 h 1.85e-4 c 0.19902,0 0.380313,0.081 0.511414,0.2124 0.131101,0.1311 0.212486,0.3121 0.212486,0.5115 v 1.2634 h 2.109232 c 0.06612,0 0.125676,-0.024 0.167852,-0.061 v 0 c 0.03691,-0.033 0.05987,-0.077 0.05987,-0.1242 v -2.5899 c -0.140943,-0.026 -0.267599,-0.088 -0.366368,-0.1756 -0.136684,-0.1208 -0.221351,-0.289 -0.221351,-0.475 0,-0.1862 0.08467,-0.3543 0.221351,-0.475 0.09877,-0.087 0.225425,-0.1498 0.366368,-0.1756 v -2.5901 c 0,-0.045 -0.02064,-0.086 -0.05397,-0.1186 l -0.0064,-0.01 c -0.04217,-0.037 -0.101732,-0.061 -0.16785,-0.061 H 0.7813484 c -0.06615,0 -0.125703,0.024 -0.167851,0.061 v 0 c -0.03691,0.033 -0.05987,0.077 -0.05987,0.1242 v 2.5899 c 0.140943,0.026 0.267758,0.088 0.366553,0.1751 v 0 0 c 0.136658,0.1208 0.221324,0.2886 0.221324,0.475 0,0.1815 -0.08022,0.3456 -0.210846,0.4655 l -0.01058,0.01 c -0.0988,0.087 -0.225611,0.1495 -0.366554,0.1751 v 2.5898 c 0,0.045 0.02037,0.086 0.05366,0.1184 l 0.0066,0.01 c 0.04215,0.037 0.101706,0.061 0.167852,0.061 h 2.109364 v -1.2634 c 0,-0.1994 0.08139,-0.3804 0.212487,-0.5115 0.131101,-0.131 0.312076,-0.2124 0.51144,-0.2124 h 1.59e-4 c 0.199336,0 0.380336,0.081 0.511412,0.2124 0.131104,0.1311 0.212488,0.3121 0.212488,0.5115 z m 1.267009,1.2634 h 0.869288 v -1.2634 c 0,-0.1191 -0.04905,-0.2279 -0.127821,-0.3067 -0.07877,-0.079 -0.187537,-0.1278 -0.306835,-0.1278 -0.119276,0 -0.228047,0.049 -0.306814,0.1278 -0.07877,0.079 -0.127818,0.1876 -0.127818,0.3067 z m 2.425565,0 h 0.869291 v -1.2634 c 0,-0.1191 -0.04908,-0.2279 -0.127821,-0.3067 -0.07877,-0.079 -0.187538,-0.1278 -0.30684,-0.1278 -0.119272,0 -0.228069,0.049 -0.306809,0.1278 -0.07877,0.079 -0.127821,0.1876 -0.127821,0.3067 z m 2.4255426,0 h 0.86929 v -1.2634 c 0,-0.1191 -0.04905,-0.2279 -0.12782,-0.3067 -0.07874,-0.079 -0.187537,-0.1278 -0.306811,-0.1278 -0.119301,0 -0.228071,0.049 -0.306838,0.1278 -0.07874,0.079 -0.127821,0.1876 -0.127821,0.3067 z m 2.425569,0 h 0.869289 v -1.2634 c 0,-0.1191 -0.04905,-0.2279 -0.12782,-0.3067 -0.07877,-0.079 -0.187537,-0.1278 -0.306653,-0.1278 h -1.85e-4 c -0.119274,0 -0.228044,0.049 -0.306811,0.1278 -0.07877,0.079 -0.12782,0.1876 -0.12782,0.3067 z m -10.5456036,-6.1393 h 1.72069 c 0.150126,0 0.288132,0.055 0.389019,0.1445 0.105515,0.093 0.171317,0.2232 0.171317,0.3672 v 2.4054 c 0,0.1438 -0.06564,0.274 -0.171317,0.3672 -0.100729,0.089 -0.238893,0.1446 -0.389019,0.1446 h -1.72069 c -0.149966,0 -0.288264,-0.056 -0.389017,-0.1446 -0.105489,-0.093 -0.171291,-0.2233 -0.171291,-0.3672 v -2.4054 c 0,-0.1437 0.0658,-0.2741 0.171291,-0.3672 0.100753,-0.089 0.238892,-0.1445 0.389017,-0.1445 z m 1.72069,0.2894 h -1.72069 c -0.07842,0 -0.148484,0.027 -0.198041,0.071 -0.04479,0.039 -0.07284,0.093 -0.07284,0.1512 v 2.4054 c 0,0.058 0.02805,0.1117 0.07284,0.1513 0.04956,0.044 0.119962,0.071 0.198041,0.071 h 1.72069 c 0.07842,0 0.148486,-0.027 0.198043,-0.071 0.04479,-0.04 0.07287,-0.093 0.07287,-0.1513 v -2.4054 c 0,-0.058 -0.02807,-0.1117 -0.07287,-0.1512 -0.0494,-0.044 -0.119779,-0.071 -0.198043,-0.071 z m 1.791891,-0.2894 h 1.720529 c 0.150126,0 0.288452,0.056 0.389178,0.1445 0.105514,0.093 0.17129,0.2235 0.17129,0.3672 v 2.4054 c 0,0.1439 -0.06578,0.2739 -0.17129,0.3672 v 0 0 c -0.100567,0.089 -0.238574,0.1439 -0.389178,0.1439 h -1.720529 c -0.150629,0 -0.288606,-0.055 -0.389203,-0.1439 l -0.0098,-0.01 c -0.09975,-0.093 -0.161448,-0.2189 -0.161448,-0.3583 v -2.4054 c 0,-0.1437 0.0658,-0.2742 0.171291,-0.3672 0.100752,-0.089 0.239077,-0.1446 0.389201,-0.1446 z m 1.720529,0.2894 h -1.720529 c -0.07842,0 -0.148644,0.027 -0.1982,0.071 -0.04479,0.039 -0.07287,0.093 -0.07287,0.1512 v 2.4054 c 0,0.055 0.02513,0.106 0.06564,0.1447 l 0.0071,0.01 c 0.05003,0.044 0.120254,0.072 0.198201,0.072 h 1.720529 c 0.07792,0 0.148139,-0.028 0.198197,-0.072 v 0 c 0.04463,-0.04 0.07252,-0.093 0.07252,-0.151 v -2.4054 c 0,-0.058 -0.02805,-0.1117 -0.07284,-0.1512 -0.04956,-0.044 -0.119773,-0.071 -0.198197,-0.071 z m 1.792051,-0.2894 h 1.7205086 c 0.150125,0 0.288449,0.056 0.389202,0.1445 0.10549,0.093 0.171292,0.2235 0.171292,0.3672 v 2.4054 c 0,0.1439 -0.0658,0.2739 -0.171292,0.3672 v 0 0 c -0.100594,0.089 -0.238575,0.1439 -0.389202,0.1439 H 9.3623924 c -0.150626,0 -0.288607,-0.055 -0.3892,-0.1439 l -0.0098,-0.01 c -0.09975,-0.093 -0.161446,-0.2189 -0.161446,-0.3583 v -2.4054 c 0,-0.1437 0.0658,-0.2742 0.171293,-0.3672 0.100752,-0.089 0.239077,-0.1446 0.3892,-0.1446 z m 1.7205086,0.2894 H 9.3623924 c -0.07842,0 -0.148668,0.027 -0.198198,0.071 -0.04479,0.039 -0.07287,0.093 -0.07287,0.1512 v 2.4054 c 0,0.055 0.02513,0.106 0.06564,0.1447 l 0.0071,0.01 c 0.05003,0.044 0.120255,0.072 0.198201,0.072 h 1.7205056 c 0.07795,0 0.148166,-0.028 0.198199,-0.072 v 0 c 0.04464,-0.04 0.07252,-0.093 0.07252,-0.151 v -2.4054 c 0,-0.058 -0.02807,-0.1117 -0.07287,-0.1512 -0.04953,-0.044 -0.119777,-0.071 -0.198199,-0.071 z m 1.791891,-0.2894 h 1.720691 c 0.150125,0 0.28829,0.056 0.389017,0.1445 0.105516,0.093 0.171317,0.2235 0.171317,0.3672 v 2.4054 c 0,0.1439 -0.0658,0.2739 -0.171317,0.3672 -0.100727,0.089 -0.239051,0.1446 -0.389017,0.1446 h -1.720691 c -0.150125,0 -0.28829,-0.056 -0.389017,-0.1446 -0.105675,-0.093 -0.171291,-0.2234 -0.171291,-0.3672 v -2.4054 c 0,-0.144 0.06577,-0.2741 0.171291,-0.3672 0.100912,-0.089 0.238892,-0.1445 0.389017,-0.1445 z m 1.720691,0.2894 h -1.720691 c -0.07826,0 -0.148484,0.027 -0.198041,0.071 -0.04479,0.039 -0.07284,0.093 -0.07284,0.1512 v 2.4054 c 0,0.058 0.02805,0.1117 0.07284,0.1513 0.04956,0.044 0.119618,0.071 0.198041,0.071 h 1.720691 c 0.0781,0 0.148484,-0.027 0.198041,-0.071 0.04479,-0.04 0.07284,-0.093 0.07284,-0.1513 v -2.4054 c 0,-0.058 -0.02805,-0.1117 -0.07284,-0.1512 -0.04956,-0.044 -0.119618,-0.071 -0.198041,-0.071 z" style="" fill="#000000" fill-rule="evenodd" stroke-width="0.26458335"/></g><text x="0" y="31.933334" fill="#000000" font-size="5px" font-weight="bold" font-family="'Helvetica Neue', Helvetica, Arial-Unicode, Arial, Sans-serif">Created by Alvida Biersack</text><text x="0" y="36.933334" fill="#000000" font-size="5px" font-weight="bold" font-family="'Helvetica Neue', Helvetica, Arial-Unicode, Arial, Sans-serif">from the Noun Project</text></svg>